<?xml version="1.0" standalone="no"?>
<!DOCTYPE svg PUBLIC "-//W3C//DTD SVG 20010904//EN"
 "http://www.w3.org/TR/2001/REC-SVG-20010904/DTD/svg10.dtd">
<svg version="1.0" xmlns="http://www.w3.org/2000/svg"
 width="1520.000000pt" height="1520.000000pt" viewBox="0 0 1520.000000 1520.000000"
 preserveAspectRatio="xMidYMid meet">
<metadata>
Created by potrace 1.14, written by Peter Selinger 2001-2017
</metadata>
<g transform="translate(0.000000,1520.000000) scale(0.100000,-0.100000)"
fill="#000000" stroke="none">
<path d="M141 10267 c-49 -23 -94 -67 -118 -116 -17 -34 -18 -154 -20 -2551
l-2 -2515 22 -42 c30 -56 59 -93 74 -93 7 0 13 -4 13 -9 0 -14 88 -41 132 -41
21 0 54 6 73 14 18 8 36 12 39 8 3 -3 6 0 6 6 0 6 9 13 19 17 53 17 118 171
100 238 -4 15 -4 27 -1 27 6 0 7 402 2 545 0 17 0 68 0 115 1 47 0 87 -1 90
-1 3 0 10 1 15 5 24 4 235 -1 235 -4 0 -3 17 1 38 3 20 3 49 -1 65 -4 15 -4
27 -1 27 6 0 7 85 1 100 -1 3 0 10 1 15 1 6 2 69 1 140 -1 72 -1 137 -1 145 0
8 0 224 -1 480 0 256 0 472 0 480 2 117 2 176 0 180 -1 3 0 10 1 15 5 24 4
235 -1 235 -4 0 -3 17 1 38 3 20 3 49 -1 65 -4 15 -4 27 -1 27 6 0 7 85 1 100
-1 3 0 10 1 15 1 6 2 69 1 140 -1 72 -1 137 -1 145 0 8 0 224 -1 480 0 256 0
472 0 480 2 117 2 176 0 180 -1 3 0 10 1 15 5 18 2 249 -3 275 -29 154 -197
242 -336 177z"/>
<path d="M1025 10278 c-38 -14 -84 -46 -112 -78 -45 -50 -57 -124 -52 -325 0
-16 1 -1079 0 -1120 0 -5 0 -111 0 -235 0 -124 0 -232 0 -240 0 -8 0 -44 0
-80 -1 -36 -1 -72 0 -80 0 -8 0 -116 0 -240 0 -124 0 -232 0 -240 1 -8 0 -260
0 -560 0 -300 0 -552 0 -560 0 -12 0 -420 0 -485 -1 -773 1 -936 11 -966 71
-209 348 -225 447 -26 21 41 21 47 21 1312 2 2518 0 3711 -6 3745 -13 69 -63
133 -132 166 -44 21 -136 28 -177 12z"/>
<path d="M2840 10283 c-71 -24 -126 -68 -157 -127 -26 -48 -27 -160 -2 -208
33 -65 74 -100 152 -128 18 -6 314 -10 825 -10 l798 0 34 -56 c56 -92 67 -114
145 -270 41 -82 75 -158 75 -166 0 -9 4 -19 9 -22 13 -8 89 -240 107 -326 3
-14 9 -41 14 -60 36 -144 32 -436 -7 -540 -3 -8 -8 -23 -10 -33 -6 -32 -55
-130 -94 -188 -54 -80 -152 -175 -244 -237 -74 -50 -262 -148 -302 -157 -10
-2 -47 -15 -83 -28 -100 -38 -361 -102 -368 -91 -4 5 -54 79 -111 164 -57 85
-120 175 -139 199 -111 137 -327 105 -404 -61 -17 -37 -19 -145 -3 -208 3 -14
8 -35 11 -47 2 -12 8 -33 13 -45 5 -13 9 -27 10 -33 4 -27 25 -91 33 -99 4 -6
8 -18 8 -28 0 -10 4 -26 9 -36 5 -9 28 -64 52 -122 45 -113 176 -381 228 -468
17 -29 31 -57 31 -62 0 -4 4 -10 8 -12 4 -1 21 -25 36 -53 33 -58 158 -258
166 -265 3 -3 10 -12 15 -21 65 -106 459 -628 504 -669 4 -3 49 -54 100 -115
52 -60 102 -117 110 -126 9 -9 41 -44 71 -79 176 -200 481 -505 528 -527 49
-24 154 -23 203 0 87 43 134 118 134 217 0 89 -18 121 -144 249 -169 174 -291
302 -361 380 -36 41 -76 86 -90 101 -14 15 -45 51 -70 80 -25 29 -60 69 -78
89 -17 20 -51 61 -75 91 -23 30 -50 64 -60 75 -27 29 -153 194 -258 337 -86
118 -263 388 -261 398 0 3 -5 12 -12 20 -32 37 -114 190 -105 195 5 4 22 9 37
11 109 19 434 114 509 149 17 8 34 15 38 15 23 0 308 156 370 202 66 50 152
125 204 178 71 74 161 189 161 208 0 6 4 12 9 12 5 0 11 8 15 18 3 9 10 24 16
32 43 63 120 279 135 381 4 24 11 69 16 99 8 53 4 348 -5 400 -3 14 -8 45 -11
70 -3 25 -8 51 -11 59 -3 8 -7 30 -10 50 -8 50 -67 254 -95 326 -13 33 -24 62
-24 65 0 3 -7 16 -15 30 -7 14 -12 25 -9 25 6 0 -60 148 -103 234 -21 41 -38
78 -38 82 0 5 347 8 788 7 l787 -3 2 -2350 c0 -1292 3 -2360 6 -2372 10 -38
39 -87 69 -116 120 -112 314 -75 382 73 l21 45 1 2360 1 2360 861 3 c686 2
862 0 863 -10 5 -75 2 -261 -4 -265 -4 -2 -4 -9 -1 -15 9 -15 10 -141 1 -155
-4 -7 -4 -14 0 -16 10 -6 9 -460 -1 -475 -4 -7 -4 -12 1 -12 10 0 9 -272 0
-287 -4 -7 -4 -14 0 -16 10 -6 9 -139 0 -154 -4 -7 -4 -14 0 -16 10 -6 9 -460
-1 -475 -4 -7 -3 -12 1 -12 10 0 9 -47 -1 -57 -4 -4 -98 -8 -209 -9 -184 0
-206 -2 -242 -21 -91 -47 -140 -128 -138 -229 1 -76 26 -119 120 -207 36 -34
86 -81 110 -104 23 -22 43 -40 43 -39 0 2 24 -20 53 -48 45 -43 145 -136 317
-295 69 -65 109 -84 180 -86 108 -5 189 45 232 142 18 40 21 70 23 222 1 97 3
178 4 181 0 3 379 5 841 5 462 0 841 -2 841 -5 1 -3 2 -513 3 -1135 2 -834 6
-1137 14 -1158 60 -144 236 -200 363 -114 38 25 86 90 95 127 4 14 7 1085 8
2380 l1 2355 445 5 c490 6 475 4 543 71 58 58 88 182 57 239 -6 11 -8 20 -4
20 9 0 -44 71 -70 93 -12 10 -40 27 -64 38 -43 19 -110 19 -4775 18 -2603 0
-4739 -3 -4747 -6z m8135 -1455 c0 -541 -3 -985 -6 -988 -4 -3 -384 -5 -846
-5 l-838 0 -1 980 c-1 539 1 983 3 988 2 4 383 7 846 7 l842 0 0 -982z"/>
<path d="M14025 10278 c-67 -25 -113 -67 -143 -131 l-22 -47 0 -2488 c0 -1368
3 -2503 6 -2522 16 -98 108 -177 215 -188 110 -10 226 71 250 176 5 20 8 440
8 932 0 492 0 902 0 910 1 94 1 148 0 160 0 12 -1 738 0 800 0 8 0 44 0 80 1
36 1 74 0 85 0 11 0 472 0 1025 1 553 -1 1014 -3 1026 -14 70 -67 138 -134
170 -44 21 -136 28 -177 12z"/>
<path d="M14864 10270 c-68 -30 -128 -106 -141 -179 -5 -36 -7 -117 -3 -136 1
-5 1 -14 0 -20 -2 -13 -2 -87 0 -100 1 -5 1 -14 0 -20 -2 -14 -3 -88 0 -100 1
-5 1 -14 0 -20 -2 -13 -2 -87 0 -100 1 -5 1 -14 0 -20 -4 -22 -1 -95 5 -105 3
-5 2 -10 -2 -10 -9 0 -7 -84 2 -107 2 -7 1 -13 -3 -13 -8 0 -6 -204 2 -226 3
-8 2 -14 -2 -14 -6 0 -7 -644 -1 -660 1 -3 0 -9 -1 -15 -5 -23 -2 -386 3 -391
3 -3 3 -12 1 -19 -8 -21 -10 -105 -2 -105 4 0 5 -6 2 -13 -8 -23 -10 -98 -2
-103 4 -3 5 -11 2 -18 -9 -23 -10 -97 -2 -102 5 -3 6 -10 2 -15 -8 -13 -9 -97
-2 -105 4 -3 4 -12 2 -19 -8 -21 -10 -105 -2 -105 4 0 5 -6 2 -13 -8 -23 -10
-98 -2 -103 4 -3 5 -11 2 -18 -9 -23 -9 -106 -1 -106 5 0 5 -5 2 -10 -8 -14
-11 -98 -3 -105 3 -3 2 -22 -2 -43 -3 -20 -3 -49 1 -65 4 -15 4 -27 1 -27 -6
0 -7 -385 -1 -415 1 -5 0 -14 -1 -20 -3 -13 -3 -377 0 -390 1 -5 1 -14 0 -20
-2 -13 -2 -87 0 -100 1 -5 1 -14 0 -20 -2 -14 -3 -88 0 -100 1 -5 1 -14 0 -20
-2 -13 -2 -87 0 -100 1 -5 1 -14 0 -20 -4 -22 -1 -95 5 -105 3 -5 2 -10 -2
-10 -9 0 -7 -84 2 -107 2 -7 1 -13 -3 -13 -4 0 -6 -78 -5 -172 1 -95 2 -173 3
-173 0 0 3 -20 5 -45 7 -77 60 -152 133 -187 49 -24 155 -24 202 -1 48 23 94
70 118 121 l21 42 -2 2520 -2 2520 -32 50 c-33 51 -86 95 -116 95 -8 0 -19 5
-22 10 -10 16 -115 9 -161 -10z"/>
</g>
</svg>
